<svg xmlns="http://www.w3.org/2000/svg" xmlns:xlink="http://www.w3.org/1999/xlink" viewBox="0 0 233 386"><defs><style>.cls-1,.cls-12,.cls-8{fill:#fff;}.cls-2{opacity:0.3;fill:url(#linear-gradient);}.cls-10,.cls-11,.cls-3,.cls-4,.cls-5,.cls-6,.cls-9{opacity:0.61;}.cls-3{fill:url(#linear-gradient-2);}.cls-4{fill:url(#linear-gradient-3);}.cls-5{fill:url(#linear-gradient-4);}.cls-6{fill:url(#linear-gradient-5);}.cls-10,.cls-11,.cls-7,.cls-9{fill:none;}.cls-10,.cls-11,.cls-12,.cls-7,.cls-8,.cls-9{stroke-miterlimit:10;}.cls-7{stroke-width:0.5px;stroke:url(#linear-gradient-6);}.cls-7,.cls-8{opacity:0.86;}.cls-10,.cls-12,.cls-8,.cls-9{stroke-width:3px;}.cls-8{stroke:url(#linear-gradient-7);}.cls-9{stroke:url(#linear-gradient-8);}.cls-10{stroke:url(#linear-gradient-9);}.cls-11{stroke-width:2px;stroke:url(#linear-gradient-10);}.cls-12{stroke:url(#linear-gradient-11);}</style><linearGradient id="linear-gradient" x1="240.12" y1="235.81" x2="100.48" y2="118.64" gradientUnits="userSpaceOnUse"><stop offset="0.05" stop-color="#fbd11b"/><stop offset="0.14" stop-color="#f8a91d"/><stop offset="0.33" stop-color="#f15b22"/><stop offset="0.46" stop-color="#ec4023"/><stop offset="0.65" stop-color="#e51e25"/><stop offset="0.7" stop-color="#e2183e"/><stop offset="0.78" stop-color="#df115f"/><stop offset="0.85" stop-color="#dd0b76"/><stop offset="0.92" stop-color="#db0884"/><stop offset="0.98" stop-color="#db0789"/></linearGradient><linearGradient id="linear-gradient-2" x1="133.38" y1="265.07" x2="165.41" y2="238.19" xlink:href="#linear-gradient"/><linearGradient id="linear-gradient-3" x1="107.13" y1="259.22" x2="148.03" y2="224.9" xlink:href="#linear-gradient"/><linearGradient id="linear-gradient-4" x1="65.63" y1="283.55" x2="141.68" y2="219.74" xlink:href="#linear-gradient"/><linearGradient id="linear-gradient-5" x1="116.11" y1="192.34" x2="140.94" y2="171.51" xlink:href="#linear-gradient"/><linearGradient id="linear-gradient-6" x1="187.25" y1="279.07" x2="110.55" y2="214.71" xlink:href="#linear-gradient"/><linearGradient id="linear-gradient-7" x1="121.37" y1="287.53" x2="-66.85" y2="129.59" xlink:href="#linear-gradient"/><linearGradient id="linear-gradient-8" x1="77.97" y1="178.5" x2="3.21" y2="115.77" xlink:href="#linear-gradient"/><linearGradient id="linear-gradient-9" x1="82.41" y1="300.02" x2="9.26" y2="238.64" xlink:href="#linear-gradient"/><linearGradient id="linear-gradient-10" x1="79.07" y1="214.4" x2="71.39" y2="207.96" xlink:href="#linear-gradient"/><linearGradient id="linear-gradient-11" x1="275.82" y1="327.31" x2="-43.73" y2="59.19" xlink:href="#linear-gradient"/></defs><title>Asset 4</title><g id="Layer_2" data-name="Layer 2"><g id="Layer_1-2" data-name="Layer 1"><rect class="cls-1" width="233" height="386"/><polygon class="cls-2" points="211.98 66.17 144.51 66.17 144.51 246.15 107.38 270.46 211.05 270.46 211.98 66.17"/><path class="cls-3" d="M169,304.57l-34.58-98.71h.42l-2-6.23s-.06-1.73-2.87-.95c0,0-2,.66.41,5.32s37.06,101.58,37.06,101.58Z"/><polygon class="cls-4" points="128.53 201.67 128.71 283.37 127.39 283.37 125.36 201.67 128.53 201.67"/><path class="cls-5" d="M124.1,199a4.27,4.27,0,0,0-2.63-.5c-1.14.32-37.71,106.68-37.71,106.68h1.67L124.1,201.25S125.3,199.43,124.1,199Z"/><path class="cls-6" d="M128.71,191.85s.84.24.78,2.16-.3,2.27-.78,2.45c0,0,1,2.24.78,2.55a3.09,3.09,0,0,0-.12,2.66h-5.43s1.21-2.28.16-2.69a26.73,26.73,0,0,0,.53-2.64l-.29-.3s-.43-3.89.29-4.19l-.69-.3v-7.06l2-1.44v-1.13l-2,1h-1.52s-1.67-1.61,0-2.87h.48l.06-1h-4.19s-1.37-6.82,0-9.27a3.41,3.41,0,0,1,3.77-1l2.4-2.75a11,11,0,0,1,7,1.43s.78,1,0,1.68h6.58s2.46,1,2.46,5-2.58,4.31-2.58,4.31h-6.34v.83h-1.92l.81.81V182h-3.14v1.19l1.76,1.38v7.18Z"/><line class="cls-7" x1="214.04" y1="246.89" x2="83.76" y2="246.89"/><polygon class="cls-8" points="20.43 31.45 82.47 104.73 82.47 331.3 20.43 372.98 20.43 31.45"/><polygon class="cls-9" points="31.06 87.47 31.06 191.46 68.24 186.97 68.24 117.05 31.06 87.47"/><polygon class="cls-10" points="31.06 215.66 68.24 207.59 68.24 314.27 31.06 336.68 31.06 215.66"/><ellipse class="cls-11" cx="75.23" cy="211.18" rx="2.66" ry="5.38"/><polygon class="cls-12" points="20.43 381.5 20.43 23.82 213.17 23.82 213.17 381.5 227.59 381.5 227.59 5 4.5 5 4.5 381.5 20.43 381.5"/></g></g></svg>